<svg width="10" height="15" viewBox="0 0 10 15" fill="none" xmlns="http://www.w3.org/2000/svg">
<path fill-rule="evenodd" clip-rule="evenodd" d="M2 3.37536C2 5.23952 3.34315 6.75072 5 6.75072C6.65685 6.75072 8 5.23952 8 3.37536C8 1.5112 6.65685 0 5 0C3.34315 0 2 1.5112 2 3.37536ZM3.50668 14.6855C3.97826 14.657 4.47986 14.6266 5 14.6266C5.52014 14.6266 6.02174 14.657 6.49332 14.6855C8.52532 14.8087 10 14.898 10 12.3763C10 9.26939 7.76142 7.87584 5 7.87584C2.23858 7.87584 0 9.26939 0 12.3763C0 14.898 1.47468 14.8087 3.50668 14.6855Z" fill="#14391E"/>
</svg>
